<svg width="23" height="37" viewBox="0 0 23 37" fill="none" xmlns="http://www.w3.org/2000/svg">
<path d="M0.8125 20.7416C0.8125 24.3725 2.36922 25.9327 4.75 26.69V29.75H18.25V26.69C20.6308 25.9327 22.1875 24.3697 22.1875 20.7416C22.1875 18.5893 21.433 16.0236 20.3109 13.5303L13.2578 20.5848C13.1523 20.6902 13.0093 20.7494 12.8602 20.7494C12.7111 20.7494 12.5681 20.6902 12.4626 20.5848L11.6673 19.7895C11.5619 19.6841 11.5027 19.541 11.5027 19.3919C11.5027 19.2428 11.5619 19.0998 11.6673 18.9943L19.2534 11.4055C17.7909 8.73992 15.9859 6.33594 14.2703 4.89523C15.2547 4.65477 16 3.8082 16 2.75C16 2.15326 15.7629 1.58097 15.341 1.15901C14.919 0.737053 14.3467 0.5 13.75 0.5L9.25 0.5C8.65326 0.5 8.08097 0.737053 7.65901 1.15901C7.23705 1.58097 7 2.15326 7 2.75C7 3.80469 7.74531 4.65477 8.72969 4.89523C5.01789 8.00938 0.8125 15.582 0.8125 20.7416ZM21.625 32H1.375C1.07663 32 0.790483 32.1185 0.579505 32.3295C0.368526 32.5405 0.25 32.8266 0.25 33.125L0.25 35.375C0.25 35.6734 0.368526 35.9595 0.579505 36.1705C0.790483 36.3815 1.07663 36.5 1.375 36.5H21.625C21.9234 36.5 22.2095 36.3815 22.4205 36.1705C22.6315 35.9595 22.75 35.6734 22.75 35.375V33.125C22.75 32.8266 22.6315 32.5405 22.4205 32.3295C22.2095 32.1185 21.9234 32 21.625 32Z" fill="white"/>
</svg>
