<svg width="33" height="37" viewBox="0 0 33 37" fill="none" xmlns="http://www.w3.org/2000/svg">
<path d="M28.8752 32H4.12521C3.82684 32 3.54069 32.1185 3.32971 32.3295C3.11873 32.5405 3.00021 32.8266 3.00021 33.125V35.375C3.00021 35.6734 3.11873 35.9595 3.32971 36.1705C3.54069 36.3815 3.82684 36.5 4.12521 36.5H28.8752C29.1736 36.5 29.4597 36.3815 29.6707 36.1705C29.8817 35.9595 30.0002 35.6734 30.0002 35.375V33.125C30.0002 32.8266 29.8817 32.5405 29.6707 32.3295C29.4597 32.1185 29.1736 32 28.8752 32ZM30.0002 11.75H18.7502V8.375H21.5627C21.7119 8.375 21.855 8.31574 21.9605 8.21025C22.0659 8.10476 22.1252 7.96168 22.1252 7.8125V4.4375C22.1252 4.28832 22.0659 4.14524 21.9605 4.03975C21.855 3.93426 21.7119 3.875 21.5627 3.875H18.7502V1.0625C18.7502 0.913316 18.6909 0.770242 18.5855 0.664752C18.48 0.559263 18.3369 0.5 18.1877 0.5H14.8127C14.6635 0.5 14.5204 0.559263 14.415 0.664752C14.3095 0.770242 14.2502 0.913316 14.2502 1.0625V3.875H11.4377C11.2885 3.875 11.1454 3.93426 11.04 4.03975C10.9345 4.14524 10.8752 4.28832 10.8752 4.4375V7.8125C10.8752 7.96168 10.9345 8.10476 11.04 8.21025C11.1454 8.31574 11.2885 8.375 11.4377 8.375H14.2502V11.75H3.00021C2.64745 11.7503 2.29971 11.8335 1.98504 11.9929C1.67037 12.1523 1.3976 12.3835 1.18874 12.6678C0.979876 12.9521 0.840782 13.2815 0.782682 13.6294C0.724582 13.9773 0.749104 14.3341 0.854268 14.6708L5.99271 29.75H27.0077L32.1461 14.6708C32.2513 14.3341 32.2758 13.9773 32.2177 13.6294C32.1596 13.2815 32.0205 12.9521 31.8117 12.6678C31.6028 12.3835 31.33 12.1523 31.0154 11.9929C30.7007 11.8335 30.353 11.7503 30.0002 11.75Z" fill="white"/>
</svg>
