<svg width="27" height="35" viewBox="0 0 27 35" fill="none" xmlns="http://www.w3.org/2000/svg">
<path d="M1.33594 17.658L4.19274 18.9279C4.46735 19.0499 4.76363 19.1157 5.06408 19.1214C5.36454 19.1271 5.66309 19.0725 5.94211 18.9609L6.84071 18.6009C7.15479 18.4753 7.43649 18.2804 7.66486 18.0309C7.89324 17.7813 8.0624 17.4835 8.15977 17.1595L8.80805 15.0045C8.86705 14.7682 8.97646 14.5476 9.12878 14.3576C9.2811 14.1677 9.47271 14.013 9.69047 13.9041L11.2458 13.125V16.6638C11.2459 17.2907 11.0715 17.9052 10.742 18.4384C10.4125 18.9717 9.94103 19.4027 9.3804 19.683L5.35711 21.6975C4.42314 22.165 3.63778 22.8834 3.089 23.772C2.54023 24.6607 2.24971 25.6846 2.25001 26.7291V27.75H24.7402V14.25C24.7402 6.79688 18.6989 0.75 11.2458 0.75H0.843755C0.619979 0.75 0.405368 0.838895 0.247134 0.997129C0.0888999 1.15536 5.07425e-06 1.36997 5.07425e-06 1.59375C-0.000109404 1.77878 0.0429881 1.96128 0.125864 2.12672L1.12501 4.125L0.492193 4.75781C0.335621 4.91493 0.21156 5.10137 0.127106 5.30647C0.0426515 5.51157 -0.000538853 5.73132 5.07425e-06 5.95312V15.6007C-0.000261814 16.0361 0.125816 16.4623 0.362947 16.8274C0.600078 17.1926 0.938074 17.4812 1.33594 17.658ZM3.65626 7.5C3.93439 7.5 4.20627 7.58248 4.43753 7.737C4.66878 7.89152 4.84902 8.11114 4.95546 8.3681C5.0619 8.62506 5.08974 8.90781 5.03548 9.1806C4.98122 9.45338 4.84729 9.70395 4.65062 9.90062C4.45396 10.0973 4.20339 10.2312 3.9306 10.2855C3.65781 10.3397 3.37507 10.3119 3.11811 10.2055C2.86115 10.099 2.64152 9.91878 2.487 9.68752C2.33248 9.45626 2.25001 9.18438 2.25001 8.90625C2.25001 8.53329 2.39816 8.1756 2.66189 7.91188C2.92561 7.64816 3.28329 7.5 3.65626 7.5ZM25.875 30H1.12501C0.826637 30 0.540488 30.1185 0.32951 30.3295C0.118532 30.5405 5.07425e-06 30.8266 5.07425e-06 31.125V33.375C5.07425e-06 33.6734 0.118532 33.9595 0.32951 34.1705C0.540488 34.3815 0.826637 34.5 1.12501 34.5H25.875C26.1734 34.5 26.4595 34.3815 26.6705 34.1705C26.8815 33.9595 27 33.6734 27 33.375V31.125C27 30.8266 26.8815 30.5405 26.6705 30.3295C26.4595 30.1185 26.1734 30 25.875 30Z" fill="white"/>
</svg>
