<svg width="23" height="35" viewBox="0 0 23 35" fill="none" xmlns="http://www.w3.org/2000/svg">
<path d="M7.63984 14.25H5.875C5.57663 14.25 5.29048 14.3685 5.0795 14.5795C4.86853 14.7905 4.75 15.0766 4.75 15.375V17.625C4.75 17.9234 4.86853 18.2095 5.0795 18.4205C5.29048 18.6315 5.57663 18.75 5.875 18.75H7V19.136C7 22.2298 6.70891 25.2251 5.3125 27.75H17.6875C16.289 25.2251 16 22.2298 16 19.136V18.75H17.125C17.4234 18.75 17.7095 18.6315 17.9205 18.4205C18.1315 18.2095 18.25 17.9234 18.25 17.625V15.375C18.25 15.0766 18.1315 14.7905 17.9205 14.5795C17.7095 14.3685 17.4234 14.25 17.125 14.25H15.3602C17.4266 12.9577 18.8125 10.6795 18.8125 8.0625C18.8125 6.1231 18.0421 4.26314 16.6707 2.89178C15.2994 1.52042 13.4394 0.75 11.5 0.75C9.5606 0.75 7.70064 1.52042 6.32928 2.89178C4.95792 4.26314 4.1875 6.1231 4.1875 8.0625C4.1875 10.6795 5.57336 12.9577 7.63984 14.25ZM21.625 30H1.375C1.07663 30 0.790483 30.1185 0.579505 30.3295C0.368526 30.5405 0.25 30.8266 0.25 31.125L0.25 33.375C0.25 33.6734 0.368526 33.9595 0.579505 34.1705C0.790483 34.3815 1.07663 34.5 1.375 34.5H21.625C21.9234 34.5 22.2095 34.3815 22.4205 34.1705C22.6315 33.9595 22.75 33.6734 22.75 33.375V31.125C22.75 30.8266 22.6315 30.5405 22.4205 30.3295C22.2095 30.1185 21.9234 30 21.625 30Z" fill="white"/>
</svg>
