<svg width="37" height="37" viewBox="0 0 37 37" fill="none" xmlns="http://www.w3.org/2000/svg">
<path d="M18.4999 8.375C19.2787 8.375 20.04 8.14407 20.6875 7.71141C21.335 7.27876 21.8397 6.6638 22.1377 5.94432C22.4357 5.22483 22.5137 4.43313 22.3618 3.66933C22.2098 2.90553 21.8348 2.20394 21.2841 1.65327C20.7335 1.1026 20.0319 0.727589 19.2681 0.57566C18.5043 0.42373 17.7126 0.501706 16.9931 0.799726C16.2736 1.09775 15.6587 1.60243 15.226 2.24994C14.7933 2.89746 14.5624 3.65874 14.5624 4.4375C14.5624 5.48179 14.9773 6.48331 15.7157 7.22173C16.4541 7.96016 17.4556 8.375 18.4999 8.375ZM30.8749 32H6.12491C5.82654 32 5.5404 32.1185 5.32942 32.3295C5.11844 32.5405 4.99991 32.8266 4.99991 33.125V35.375C4.99991 35.6734 5.11844 35.9595 5.32942 36.1705C5.5404 36.3815 5.82654 36.5 6.12491 36.5H30.8749C31.1733 36.5 31.4594 36.3815 31.6704 36.1705C31.8814 35.9595 31.9999 35.6734 31.9999 35.375V33.125C31.9999 32.8266 31.8814 32.5405 31.6704 32.3295C31.4594 32.1185 31.1733 32 30.8749 32ZM35.9986 13.4488L33.994 12.3294C33.4708 11.9778 32.805 12.1564 32.4267 12.6584C32.0499 13.1629 31.5383 13.5508 30.9509 13.7776C30.3634 14.0043 29.7239 14.0607 29.1059 13.9402C27.4788 13.6386 26.3749 12.0966 26.3749 10.4422C26.3749 10.1923 26.2756 9.95266 26.099 9.77596C25.9223 9.59927 25.6826 9.5 25.4327 9.5H22.7067C22.2848 9.5 21.8904 9.78125 21.8025 10.1968C21.6429 10.9545 21.2277 11.6343 20.6264 12.1222C20.0251 12.6101 19.2743 12.8764 18.4999 12.8764C17.7256 12.8764 16.9748 12.6101 16.3735 12.1222C15.7721 11.6343 15.3569 10.9545 15.1973 10.1968C15.1094 9.78055 14.7178 9.5 14.2931 9.5H11.5671C11.3172 9.5 11.0776 9.59927 10.9009 9.77596C10.7242 9.95266 10.6249 10.1923 10.6249 10.4422C10.6249 12.2485 9.28897 13.8699 7.48405 13.9923C6.92322 14.0318 6.36149 13.9291 5.85091 13.6938C5.34033 13.4584 4.89744 13.0979 4.56327 12.6458C4.19202 12.1473 3.52757 11.9813 3.01007 12.3266L1.00124 13.4516C0.773008 13.6036 0.608178 13.8338 0.537741 14.0989C0.467303 14.3639 0.496108 14.6456 0.618741 14.8909L7.82929 29.75H29.1705L36.3811 14.888C36.5037 14.6427 36.5325 14.3611 36.4621 14.096C36.3916 13.831 36.2268 13.6008 35.9986 13.4488Z" fill="white"/>
</svg>
