<svg width="27" height="35" viewBox="0 0 27 35" fill="none" xmlns="http://www.w3.org/2000/svg">
<path d="M25.875 0.75H21.9375C21.6391 0.75 21.353 0.868526 21.142 1.0795C20.931 1.29048 20.8125 1.57663 20.8125 1.875V5.25H17.4375V1.875C17.4375 1.57663 17.319 1.29048 17.108 1.0795C16.897 0.868526 16.6109 0.75 16.3125 0.75H10.6875C10.3891 0.75 10.103 0.868526 9.892 1.0795C9.68103 1.29048 9.5625 1.57663 9.5625 1.875V5.25H6.19453V1.875C6.19453 1.57663 6.076 1.29048 5.86503 1.0795C5.65405 0.868526 5.3679 0.75 5.06953 0.75H1.125C0.826631 0.75 0.540483 0.868526 0.329505 1.0795C0.118526 1.29048 0 1.57663 0 1.875L0 14.25L4.5 16.5C4.5 19.8982 4.39172 23.1797 3.57117 27.75H23.4288C22.6083 23.1797 22.5 19.8553 22.5 16.5L27 14.25V1.875C27 1.57663 26.8815 1.29048 26.6705 1.0795C26.4595 0.868526 26.1734 0.75 25.875 0.75ZM15.75 21H11.25V16.5C11.25 15.9033 11.4871 15.331 11.909 14.909C12.331 14.4871 12.9033 14.25 13.5 14.25C14.0967 14.25 14.669 14.4871 15.091 14.909C15.5129 15.331 15.75 15.9033 15.75 16.5V21ZM25.875 30H1.125C0.826631 30 0.540483 30.1185 0.329505 30.3295C0.118526 30.5405 0 30.8266 0 31.125L0 33.375C0 33.6734 0.118526 33.9595 0.329505 34.1705C0.540483 34.3815 0.826631 34.5 1.125 34.5H25.875C26.1734 34.5 26.4595 34.3815 26.6705 34.1705C26.8815 33.9595 27 33.6734 27 33.375V31.125C27 30.8266 26.8815 30.5405 26.6705 30.3295C26.4595 30.1185 26.1734 30 25.875 30Z" fill="white"/>
</svg>
